# xmcd CD database file
#
# Track frame offsets:
#	150
#	17446
#	39325
#	60730
#	85612
#	105772
#	127502
#	148682
#	171351
#	195360
#	211042
#
# Disc length: 3135 seconds
#
# Revision: 0
# Processed by: cddbd v1.5.2PL0 Copyright (c) Steve Scherf et al.
# Submitted via: CDex 1.51
#
DISCID=780c3d0b
DTITLE=Bill Lancton - Yeah, Man
DYEAR=1999
DGENRE=Jazz
TTITLE0=Dancing in the Kitchen
TTITLE1=Salsalusa
TTITLE2=Incident at 501
TTITLE3=A Room of Your Own
TTITLE4=Las Costas Hermosas
TTITLE5=The Fresh Connection
TTITLE6=Boy's Night Out
TTITLE7=Memphis Road
TTITLE8=Whish Brooming in Brazil
TTITLE9=Calypso Chips
TTITLE10=Boulevard Cafe
EXTD=YEAR: 1999
EXTT0=
EXTT1=
EXTT2=
EXTT3=
EXTT4=
EXTT5=
EXTT6=
EXTT7=
EXTT8=
EXTT9=
EXTT10=
PLAYORDER=
